<mxfile host="app.diagrams.net" modified="2022-03-21T12:07:49.366Z" agent="5.0 (Windows NT 10.0; Win64; x64) AppleWebKit/537.36 (KHTML, like Gecko) Chrome/99.0.4844.74 Safari/537.36" etag="1o6YS7Y-JI3p04TXJneU" version="17.1.3" type="github">
  <diagram id="Uql1HFpLZe8soR9BEaSL" name="第 1 页">
    <mxGraphModel dx="782" dy="514" grid="1" gridSize="10" guides="1" tooltips="1" connect="1" arrows="1" fold="1" page="1" pageScale="1" pageWidth="827" pageHeight="1169" math="0" shadow="0">
      <root>
        <mxCell id="0" />
        <mxCell id="1" parent="0" />
        <mxCell id="glY1XXH3QtXJXoRMW03F-2" style="edgeStyle=orthogonalEdgeStyle;rounded=0;orthogonalLoop=1;jettySize=auto;html=1;exitX=0;exitY=0.5;exitDx=0;exitDy=0;entryX=0;entryY=0.5;entryDx=0;entryDy=0;" parent="1" source="zDV3YEqZpOIht9YREfx8-11" target="zDV3YEqZpOIht9YREfx8-10" edge="1">
          <mxGeometry relative="1" as="geometry">
            <Array as="points">
              <mxPoint x="120" y="315" />
              <mxPoint x="120" y="205" />
            </Array>
          </mxGeometry>
        </mxCell>
        <mxCell id="zDV3YEqZpOIht9YREfx8-11" value="&lt;b&gt;&lt;br&gt;&lt;br&gt;&lt;br&gt;求值规则&lt;/b&gt;" style="rounded=1;whiteSpace=wrap;html=1;fontSize=14;fillColor=#d5e8d4;strokeColor=#82b366;" parent="1" vertex="1">
          <mxGeometry x="170" y="250" width="500" height="70" as="geometry" />
        </mxCell>
        <mxCell id="zDV3YEqZpOIht9YREfx8-10" value="&lt;br&gt;&lt;br&gt;&lt;br&gt;&lt;br&gt;&lt;br&gt;&lt;b&gt;语言特性&lt;/b&gt;" style="rounded=1;whiteSpace=wrap;html=1;fontSize=14;fillColor=#fff2cc;strokeColor=#d6b656;" parent="1" vertex="1">
          <mxGeometry x="170" y="150" width="500" height="100" as="geometry" />
        </mxCell>
        <mxCell id="glY1XXH3QtXJXoRMW03F-1" style="edgeStyle=orthogonalEdgeStyle;rounded=0;orthogonalLoop=1;jettySize=auto;html=1;exitX=0;exitY=0.5;exitDx=0;exitDy=0;" parent="1" source="zDV3YEqZpOIht9YREfx8-9" target="zDV3YEqZpOIht9YREfx8-10" edge="1">
          <mxGeometry relative="1" as="geometry">
            <Array as="points">
              <mxPoint x="170" y="95" />
              <mxPoint x="120" y="95" />
              <mxPoint x="120" y="205" />
            </Array>
          </mxGeometry>
        </mxCell>
        <mxCell id="zDV3YEqZpOIht9YREfx8-9" value="&lt;br&gt;&lt;br&gt;&lt;br&gt;&lt;br&gt;&lt;b&gt;问题域&lt;/b&gt;" style="rounded=1;whiteSpace=wrap;html=1;fontSize=14;fillColor=#dae8fc;strokeColor=#6c8ebf;" parent="1" vertex="1">
          <mxGeometry x="170" y="70" width="500" height="80" as="geometry" />
        </mxCell>
        <mxCell id="zDV3YEqZpOIht9YREfx8-1" value="&lt;b&gt;&lt;font style=&quot;font-size: 14px&quot;&gt;算法分解&lt;/font&gt;&lt;/b&gt;" style="rounded=1;whiteSpace=wrap;html=1;fillColor=#1ba1e2;fontColor=#ffffff;strokeColor=#006EAF;" parent="1" vertex="1">
          <mxGeometry x="400" y="90" width="100" height="30" as="geometry" />
        </mxCell>
        <mxCell id="zDV3YEqZpOIht9YREfx8-12" style="edgeStyle=none;rounded=0;orthogonalLoop=1;jettySize=auto;html=1;exitX=0.25;exitY=1;exitDx=0;exitDy=0;entryX=0.5;entryY=0;entryDx=0;entryDy=0;fontSize=14;" parent="1" source="zDV3YEqZpOIht9YREfx8-2" target="zDV3YEqZpOIht9YREfx8-4" edge="1">
          <mxGeometry relative="1" as="geometry" />
        </mxCell>
        <mxCell id="zDV3YEqZpOIht9YREfx8-2" value="&lt;b&gt;&lt;font style=&quot;font-size: 14px&quot;&gt;问题域对象操作&lt;/font&gt;&lt;/b&gt;" style="rounded=1;whiteSpace=wrap;html=1;fillColor=#1ba1e2;fontColor=#ffffff;strokeColor=#006EAF;" parent="1" vertex="1">
          <mxGeometry x="270" y="90" width="130" height="30" as="geometry" />
        </mxCell>
        <mxCell id="zDV3YEqZpOIht9YREfx8-4" value="&lt;b&gt;&lt;font style=&quot;font-size: 14px&quot;&gt;语言层基础对象操作&lt;/font&gt;&lt;/b&gt;" style="rounded=1;whiteSpace=wrap;html=1;fillColor=#e3c800;fontColor=#000000;strokeColor=#B09500;" parent="1" vertex="1">
          <mxGeometry x="190" y="190" width="130" height="30" as="geometry" />
        </mxCell>
        <mxCell id="zDV3YEqZpOIht9YREfx8-5" value="&lt;b&gt;&lt;font style=&quot;font-size: 14px&quot;&gt;tree accumulation&lt;/font&gt;&lt;/b&gt;" style="rounded=1;whiteSpace=wrap;html=1;fillColor=#e3c800;fontColor=#000000;strokeColor=#B09500;" parent="1" vertex="1">
          <mxGeometry x="330" y="190" width="130" height="30" as="geometry" />
        </mxCell>
        <mxCell id="glY1XXH3QtXJXoRMW03F-6" style="edgeStyle=none;rounded=0;orthogonalLoop=1;jettySize=auto;html=1;exitX=0.25;exitY=1;exitDx=0;exitDy=0;entryX=0.5;entryY=0;entryDx=0;entryDy=0;" parent="1" source="zDV3YEqZpOIht9YREfx8-6" target="zDV3YEqZpOIht9YREfx8-7" edge="1">
          <mxGeometry relative="1" as="geometry" />
        </mxCell>
        <mxCell id="glY1XXH3QtXJXoRMW03F-7" style="edgeStyle=none;rounded=0;orthogonalLoop=1;jettySize=auto;html=1;exitX=0.25;exitY=1;exitDx=0;exitDy=0;entryX=0.5;entryY=0;entryDx=0;entryDy=0;" parent="1" source="zDV3YEqZpOIht9YREfx8-6" target="zDV3YEqZpOIht9YREfx8-8" edge="1">
          <mxGeometry relative="1" as="geometry" />
        </mxCell>
        <mxCell id="zDV3YEqZpOIht9YREfx8-6" value="&lt;span style=&quot;font-size: 14px&quot;&gt;&lt;b&gt;compound procedures&lt;/b&gt;&lt;/span&gt;" style="rounded=1;whiteSpace=wrap;html=1;fillColor=#e3c800;fontColor=#000000;strokeColor=#B09500;" parent="1" vertex="1">
          <mxGeometry x="470" y="190" width="160" height="30" as="geometry" />
        </mxCell>
        <mxCell id="zDV3YEqZpOIht9YREfx8-7" value="&lt;b&gt;应用序&lt;/b&gt;" style="rounded=1;whiteSpace=wrap;html=1;fillColor=#60a917;fontColor=#ffffff;strokeColor=#2D7600;" parent="1" vertex="1">
          <mxGeometry x="490" y="280" width="90" height="30" as="geometry" />
        </mxCell>
        <mxCell id="zDV3YEqZpOIht9YREfx8-8" value="&lt;b&gt;正则序&lt;/b&gt;" style="rounded=1;whiteSpace=wrap;html=1;fillColor=#60a917;fontColor=#ffffff;strokeColor=#2D7600;" parent="1" vertex="1">
          <mxGeometry x="580" y="280" width="90" height="30" as="geometry" />
        </mxCell>
        <mxCell id="zDV3YEqZpOIht9YREfx8-14" style="edgeStyle=none;rounded=0;orthogonalLoop=1;jettySize=auto;html=1;exitX=0.75;exitY=0;exitDx=0;exitDy=0;fontSize=14;" parent="1" source="zDV3YEqZpOIht9YREfx8-10" target="zDV3YEqZpOIht9YREfx8-10" edge="1">
          <mxGeometry relative="1" as="geometry" />
        </mxCell>
        <mxCell id="glY1XXH3QtXJXoRMW03F-3" value="&lt;b&gt;影响&lt;/b&gt;" style="text;html=1;strokeColor=none;fillColor=none;align=center;verticalAlign=middle;whiteSpace=wrap;rounded=0;" parent="1" vertex="1">
          <mxGeometry x="110" y="260" width="60" height="30" as="geometry" />
        </mxCell>
        <mxCell id="glY1XXH3QtXJXoRMW03F-4" value="&lt;b&gt;依据&lt;/b&gt;" style="text;html=1;strokeColor=none;fillColor=none;align=center;verticalAlign=middle;whiteSpace=wrap;rounded=0;" parent="1" vertex="1">
          <mxGeometry x="110" y="150" width="60" height="30" as="geometry" />
        </mxCell>
        <mxCell id="glY1XXH3QtXJXoRMW03F-12" value="&lt;b&gt;&lt;font style=&quot;font-size: 11px&quot;&gt;不同语言公共特性&lt;/font&gt;&lt;/b&gt;" style="ellipse;whiteSpace=wrap;html=1;align=center;dashed=1;fontSize=16;fillColor=#fff2cc;strokeColor=#FF66FF;" parent="1" vertex="1">
          <mxGeometry x="560" y="150" width="110" height="30" as="geometry" />
        </mxCell>
        <mxCell id="FjUdZaew3Js9uAlcEsHP-1" value="&lt;span style=&quot;font-size: 14px&quot;&gt;&lt;b&gt;...&lt;/b&gt;&lt;/span&gt;" style="rounded=1;whiteSpace=wrap;html=1;fillColor=#e3c800;fontColor=#000000;strokeColor=#B09500;" vertex="1" parent="1">
          <mxGeometry x="640" y="190" width="30" height="30" as="geometry" />
        </mxCell>
        <mxCell id="FjUdZaew3Js9uAlcEsHP-12" style="edgeStyle=orthogonalEdgeStyle;rounded=0;orthogonalLoop=1;jettySize=auto;html=1;exitX=1;exitY=0.5;exitDx=0;exitDy=0;entryX=0.5;entryY=0;entryDx=0;entryDy=0;fontSize=11;fontColor=#000000;" edge="1" parent="1" source="FjUdZaew3Js9uAlcEsHP-2" target="FjUdZaew3Js9uAlcEsHP-7">
          <mxGeometry relative="1" as="geometry" />
        </mxCell>
        <mxCell id="FjUdZaew3Js9uAlcEsHP-2" value="&lt;b&gt;expression&lt;/b&gt;" style="rounded=1;whiteSpace=wrap;html=1;fontSize=11;fillColor=#D5E8D4;" vertex="1" parent="1">
          <mxGeometry x="115" y="410" width="85" height="30" as="geometry" />
        </mxCell>
        <mxCell id="FjUdZaew3Js9uAlcEsHP-3" value="&lt;b&gt;(operator operand (operator ...(...)))&lt;/b&gt;" style="rounded=1;whiteSpace=wrap;html=1;fontSize=11;fillColor=#D5E8D4;" vertex="1" parent="1">
          <mxGeometry x="220" y="600" width="280" height="30" as="geometry" />
        </mxCell>
        <mxCell id="FjUdZaew3Js9uAlcEsHP-4" value="&lt;b&gt;tree accumulate&lt;/b&gt;" style="rounded=1;whiteSpace=wrap;html=1;fontSize=11;fillColor=#D5E8D4;" vertex="1" parent="1">
          <mxGeometry x="115" y="600" width="105" height="30" as="geometry" />
        </mxCell>
        <mxCell id="FjUdZaew3Js9uAlcEsHP-13" style="edgeStyle=orthogonalEdgeStyle;rounded=0;orthogonalLoop=1;jettySize=auto;html=1;exitX=1;exitY=0.5;exitDx=0;exitDy=0;entryX=0.5;entryY=0;entryDx=0;entryDy=0;fontSize=11;fontColor=#000000;" edge="1" parent="1" source="FjUdZaew3Js9uAlcEsHP-5" target="FjUdZaew3Js9uAlcEsHP-7">
          <mxGeometry relative="1" as="geometry" />
        </mxCell>
        <mxCell id="FjUdZaew3Js9uAlcEsHP-5" value="&lt;b&gt;condition expression&lt;/b&gt;" style="rounded=1;whiteSpace=wrap;html=1;fontSize=11;fillColor=#D5E8D4;" vertex="1" parent="1">
          <mxGeometry x="115" y="460" width="160" height="30" as="geometry" />
        </mxCell>
        <mxCell id="FjUdZaew3Js9uAlcEsHP-6" value="&lt;b&gt;func&amp;nbsp;&lt;/b&gt;" style="rounded=1;whiteSpace=wrap;html=1;fontSize=11;fillColor=#D5E8D4;" vertex="1" parent="1">
          <mxGeometry x="115" y="540" width="55" height="30" as="geometry" />
        </mxCell>
        <mxCell id="FjUdZaew3Js9uAlcEsHP-7" value="&lt;b&gt;para&amp;nbsp;&lt;/b&gt;" style="rounded=1;whiteSpace=wrap;html=1;fontSize=11;fillColor=#D5E8D4;" vertex="1" parent="1">
          <mxGeometry x="305" y="540" width="55" height="30" as="geometry" />
        </mxCell>
        <mxCell id="FjUdZaew3Js9uAlcEsHP-8" value="&lt;b&gt;black box&lt;/b&gt;" style="rounded=1;whiteSpace=wrap;html=1;fontSize=11;fillColor=#D5E8D4;" vertex="1" parent="1">
          <mxGeometry x="225" y="540" width="80" height="30" as="geometry" />
        </mxCell>
        <mxCell id="FjUdZaew3Js9uAlcEsHP-9" value="" style="rounded=1;whiteSpace=wrap;html=1;fontSize=11;fillColor=#fff2cc;strokeColor=#d6b656;" vertex="1" parent="1">
          <mxGeometry x="60" y="400" width="30" height="230" as="geometry" />
        </mxCell>
        <mxCell id="FjUdZaew3Js9uAlcEsHP-10" value="&lt;b&gt;application/order&lt;/b&gt;" style="rounded=1;whiteSpace=wrap;html=1;fontSize=11;fillColor=#D5E8D4;" vertex="1" parent="1">
          <mxGeometry x="360" y="540" width="115" height="30" as="geometry" />
        </mxCell>
        <mxCell id="FjUdZaew3Js9uAlcEsHP-11" value="&lt;b&gt;repeat&lt;/b&gt;" style="rounded=1;whiteSpace=wrap;html=1;fontSize=11;fillColor=#D5E8D4;" vertex="1" parent="1">
          <mxGeometry x="170" y="540" width="55" height="30" as="geometry" />
        </mxCell>
        <mxCell id="FjUdZaew3Js9uAlcEsHP-15" value="&lt;b&gt;block&lt;/b&gt;" style="rounded=1;whiteSpace=wrap;html=1;fontSize=11;fillColor=#D5E8D4;" vertex="1" parent="1">
          <mxGeometry x="490" y="540" width="55" height="30" as="geometry" />
        </mxCell>
        <mxCell id="FjUdZaew3Js9uAlcEsHP-16" value="传值/引用" style="ellipse;whiteSpace=wrap;html=1;aspect=fixed;fontSize=11;fontColor=#000000;fillColor=#D5E8D4;" vertex="1" parent="1">
          <mxGeometry x="580" y="510" width="60" height="60" as="geometry" />
        </mxCell>
      </root>
    </mxGraphModel>
  </diagram>
</mxfile>
